<?xml version="1.0" standalone="no"?>
<!DOCTYPE svg PUBLIC "-//W3C//DTD SVG 20010904//EN"
 "http://www.w3.org/TR/2001/REC-SVG-20010904/DTD/svg10.dtd">
<svg version="1.0" xmlns="http://www.w3.org/2000/svg"
 width="130.000000pt" height="130.000000pt" viewBox="0 0 130.000000 130.000000"
 preserveAspectRatio="xMidYMid meet">
<metadata>
Created by potrace 1.11, written by Peter Selinger 2001-2013
</metadata>
<g transform="translate(0.000000,130.000000) scale(0.100000,-0.100000)"
fill="#000000" stroke="none">
<path d="M558 1289 c-180 -23 -345 -129 -448 -285 -133 -203 -141 -459 -23
-674 46 -83 160 -197 243 -243 202 -111 438 -111 640 0 83 46 197 160 243 243
59 108 82 198 81 325 -1 93 -5 123 -29 194 -83 244 -284 409 -536 441 -46 5
-88 9 -94 9 -5 -1 -40 -5 -77 -10z m262 -395 c79 -38 132 -80 182 -142 51 -64
51 -103 1 -163 -74 -87 -136 -129 -232 -159 -167 -52 -340 -3 -470 135 -66 69
-76 96 -55 140 20 43 107 130 161 161 86 51 140 65 248 61 88 -2 108 -6 165
-33z"/>
<path d="M585 841 c-16 -10 -38 -27 -48 -39 -22 -24 -28 -83 -9 -89 7 -3 12 4
12 19 0 36 28 68 77 89 24 10 41 23 38 29 -9 15 -37 12 -70 -9z"/>
<path d="M404 778 c-43 -35 -81 -78 -90 -102 -9 -23 86 -118 159 -157 59 -32
67 -34 167 -34 96 0 110 3 162 29 62 31 168 130 168 157 0 18 -88 112 -121
130 -19 10 -20 9 -13 -13 25 -78 -9 -178 -77 -228 -149 -107 -359 29 -318 208
4 20 7 38 5 39 -2 2 -21 -11 -42 -29z"/>
</g>
</svg>
